<svg width="100" height="100" viewBox="0 0 100 100" fill="none" xmlns="http://www.w3.org/2000/svg">
  <!-- Infinity symbol in WHITE -->
  <path d="M25 50C25 38.9543 33.9543 30 45 30C51.6274 30 57.5 33.5 60.5 38.5C63.5 33.5 69.3726 30 76 30C87.0457 30 96 38.9543 96 50C96 61.0457 87.0457 70 76 70C69.3726 70 63.5 66.5 60.5 61.5C57.5 66.5 51.6274 70 45 70C33.9543 70 25 61.0457 25 50Z" fill="#FFFFFF"/>
  <path d="M45 35C36.7157 35 30 41.7157 30 50C30 58.2843 36.7157 65 45 65C49.6944 65 53.9167 62.8333 56.5 59.5L60.5 54L64.5 59.5C67.0833 62.8333 71.3056 65 76 65C84.2843 65 91 58.2843 91 50C91 41.7157 84.2843 35 76 35C71.3056 35 67.0833 37.1667 64.5 40.5L60.5 46L56.5 40.5C53.9167 37.1667 49.6944 35 45 35Z" fill="#FFFFFF"/>
</svg>
